# xmcd CD database file
#
# Track frame offsets:
#	150
#	26348
#	40773
#	62373
#	92220
#	111003
#	132245
#	152869
#	175582
#	184991
#	205932
#	219594
#	233497
#	242013
#	256163
#	271191
#	285226
#	295810
#	310532
#	323763
#
# Disc length: 4463 seconds
#
# Revision: 0
# Processed by: cddbd v1.5.1PL0 Copyright (c) Steve Scherf et al.
# Submitted via: CDex 1.51
#
DISCID=09116d14
DTITLE=Stan Tracey - "Little Klunk" and "Showcase"
DYEAR=2003
DGENRE=Jazz
TTITLE0=Li'l ol' Pottsville
TTITLE1=Dream of many colours
TTITLE2=Little Klunk
TTITLE3=Boo-Bah
TTITLE4=Baby Blue
TTITLE5=A walk in the park
TTITLE6=We'll call you
TTITLE7=Free
TTITLE8=Almost like being in love
TTITLE9=Over the Rainbow
TTITLE10=Surrey with the Fringe on Top
TTITLE11=I love Paris
TTITLE12=The best thing for you
TTITLE13=I can't give you anything but love
TTITLE14=This nearly was mine
TTITLE15=They can't take that away from me
TTITLE16=I've got five dollars
TTITLE17=Mad about the boy
TTITLE18=But not for me
TTITLE19=Love is
EXTD=YEAR: 2003
EXTT0=
EXTT1=
EXTT2=
EXTT3=
EXTT4=
EXTT5=
EXTT6=
EXTT7=
EXTT8=
EXTT9=
EXTT10=
EXTT11=
EXTT12=
EXTT13=
EXTT14=
EXTT15=
EXTT16=
EXTT17=
EXTT18=
EXTT19=
PLAYORDER=
